<mxfile host="app.diagrams.net" modified="2024-01-28T22:19:32.782Z" agent="Mozilla/5.0 (Windows NT 10.0; Win64; x64) AppleWebKit/537.36 (KHTML, like Gecko) Chrome/120.0.0.0 Safari/537.36" etag="-y2fn1Rg-8O37zdFGEEM" version="23.0.2" type="device">
  <diagram name="Page-1" id="qezc61zXcIISPLm5du1A">
    <mxGraphModel dx="1434" dy="746" grid="1" gridSize="10" guides="1" tooltips="1" connect="1" arrows="1" fold="1" page="1" pageScale="1" pageWidth="850" pageHeight="1100" math="0" shadow="0">
      <root>
        <mxCell id="0" />
        <mxCell id="1" parent="0" />
        <mxCell id="39UTPch-GgqL76onYVQo-2" value="1. Code Format&lt;br&gt;2. Lint/Static&lt;br&gt;3. SonarQube&lt;br&gt;4. Build&lt;br&gt;5. Unit Tests&lt;br&gt;6. Container&lt;br&gt;7.&amp;nbsp; Blackbox&lt;br&gt;" style="text;html=1;align=left;verticalAlign=middle;resizable=0;points=[];autosize=1;strokeColor=none;fillColor=none;" vertex="1" parent="1">
          <mxGeometry x="45" y="208" width="110" height="110" as="geometry" />
        </mxCell>
      </root>
    </mxGraphModel>
  </diagram>
</mxfile>
